<svg xmlns="http://www.w3.org/2000/svg" viewBox="0 0 48 48" fill="none" role="img" aria-label="NIVA mark">
  <defs>
    <linearGradient id="aa-mark-only" x1="0" y1="0" x2="48" y2="48" gradientUnits="userSpaceOnUse">
      <stop offset="0" stop-color="#3b82f6" />
      <stop offset="0.5" stop-color="#6366f1" />
      <stop offset="1" stop-color="#8b5cf6" />
    </linearGradient>
  </defs>

  <rect x="6" y="6" width="36" height="36" rx="12" fill="url(#aa-mark-only)" />

  <path
    d="M19.5 14h6.5v4.2a2.3 2.3 0 0 0 4.6 0V14H32a2 2 0 0 1 2 2v1.5h-4.2a2.3 2.3 0 0 0 0 4.6H34V22a2 2 0 0 1-2 2h-1.4v4.2a2.3 2.3 0 0 1-4.6 0V24H21.5a2 2 0 0 1-2-2v-1.4h-4.2a2.3 2.3 0 0 1 0-4.6H19.5V14Z"
    fill="white"
  />

  <circle cx="32" cy="14" r="2.2" fill="white" />
  <circle cx="34.5" cy="16.5" r="0.9" fill="white" opacity="0.85" />
</svg>
